<svg width="48" height="48" viewBox="0 0 48 48" fill="none" xmlns="http://www.w3.org/2000/svg">
<path d="M32.7662 16.5469H30.5678C30.0897 16.5469 29.635 16.7766 29.3537 17.1703L21.985 27.3891L18.6475 22.7578C18.3662 22.3688 17.9162 22.1344 17.4334 22.1344H15.235C14.9303 22.1344 14.7522 22.4812 14.9303 22.7297L20.7709 30.8297C20.9089 31.0223 21.0908 31.1792 21.3015 31.2874C21.5122 31.3957 21.7457 31.4522 21.9826 31.4522C22.2195 31.4522 22.453 31.3957 22.6638 31.2874C22.8745 31.1792 23.0564 31.0223 23.1943 30.8297L33.0662 17.1422C33.249 16.8938 33.0709 16.5469 32.7662 16.5469Z" fill="#7761FF"/>
<path d="M24 3C12.4031 3 3 12.4031 3 24C3 35.5969 12.4031 45 24 45C35.5969 45 45 35.5969 45 24C45 12.4031 35.5969 3 24 3ZM24 41.4375C14.3719 41.4375 6.5625 33.6281 6.5625 24C6.5625 14.3719 14.3719 6.5625 24 6.5625C33.6281 6.5625 41.4375 14.3719 41.4375 24C41.4375 33.6281 33.6281 41.4375 24 41.4375Z" fill="#7761FF"/>
</svg>
