<svg width="32" height="32" viewBox="0 0 32 32" fill="none" xmlns="http://www.w3.org/2000/svg">
<path d="M16.0006 0.640137C7.51743 0.640137 0.640625 7.51694 0.640625 16.0001C0.640625 24.4833 7.51743 31.3601 16.0006 31.3601C24.4838 31.3601 31.3606 24.4833 31.3606 16.0001C31.3606 7.51694 24.4838 0.640137 16.0006 0.640137ZM12.2406 22.3665H9.13023V12.3569H12.2406V22.3665ZM10.6662 11.1281C9.68382 11.1281 9.04862 10.4321 9.04862 9.57134C9.04862 8.69294 9.70302 8.01774 10.7062 8.01774C11.7094 8.01774 12.3238 8.69294 12.343 9.57134C12.343 10.4321 11.7094 11.1281 10.6662 11.1281ZM23.6006 22.3665H20.4902V16.8193C20.4902 15.5281 20.039 14.6513 18.9142 14.6513C18.055 14.6513 17.5446 15.2449 17.319 15.8161C17.2358 16.0193 17.215 16.3073 17.215 16.5937V22.3649H14.103V15.5489C14.103 14.2993 14.063 13.2545 14.0214 12.3553H16.7238L16.8662 13.7457H16.9286C17.3382 13.0929 18.3414 12.1297 20.0198 12.1297C22.0662 12.1297 23.6006 13.5009 23.6006 16.4481V22.3665Z" fill="white"/>
</svg>
