<svg width="201" height="80" viewBox="0 0 201 80" fill="none" xmlns="http://www.w3.org/2000/svg">
<g clip-path="url(#clip0_614_330)">
<path fill-rule="evenodd" clip-rule="evenodd" d="M20.524 30.1193C20.524 30.1193 8.27319 17.1417 14.4908 12.8988C14.9237 12.5507 15.4221 12.2918 15.9568 12.1374C16.4916 11.983 17.052 11.9362 17.6051 11.9996C18.1582 12.063 18.6931 12.2354 19.1785 12.5067C19.6638 12.778 20.0899 13.1428 20.4317 13.5798C20.7735 13.1466 21.1981 12.7851 21.6812 12.5162C22.1642 12.2472 22.6962 12.0761 23.2462 12.0128C23.7961 11.9494 24.3533 11.9951 24.8855 12.1472C25.4177 12.2993 25.9141 12.5548 26.3464 12.8988C32.6563 17.1417 20.524 30.1193 20.524 30.1193ZM20.4186 15.9893C20.0278 15.5074 19.5862 15.0684 19.1013 14.6798C18.6116 14.2533 17.9883 14.0086 17.3376 13.9871C16.6868 13.9656 16.0486 14.1687 15.5314 14.5619C15.2778 14.7192 15.0655 14.9343 14.912 15.1893C14.7586 15.4444 14.6683 15.7321 14.6489 16.0286C14.642 16.1551 14.642 16.2819 14.6489 16.4084C14.6489 19.2633 17.7708 23.9121 20.4712 27.1204C23.1059 23.9252 26.2014 19.2633 26.2014 16.4477C26.2088 16.3168 26.2088 16.1857 26.2014 16.0548C26.1825 15.753 26.0914 15.4602 25.9356 15.2005C25.7798 14.9408 25.5638 14.7219 25.3057 14.5619C24.8419 14.1186 24.2234 13.8709 23.58 13.8709C22.9366 13.8709 22.3183 14.1186 21.8544 14.5619C21.3089 14.97 20.8176 15.4452 20.3922 15.9762" fill="#1E1E1E"/>
<path fill-rule="evenodd" clip-rule="evenodd" d="M0.830078 0.866211H40.3487V40.1525H0.830078V0.866211Z" stroke="#1E1E1E" stroke-width="1.25" stroke-miterlimit="10"/>
<path fill-rule="evenodd" clip-rule="evenodd" d="M40.1504 0.824707H200.135V40.111H40.1504V0.824707Z" stroke="#1E1E1E" stroke-width="1.25" stroke-miterlimit="10"/>
<path fill-rule="evenodd" clip-rule="evenodd" d="M40.2168 40.124H149.302V79.1746H40.2168V40.124Z" stroke="#1E1E1E" stroke-width="1.25" stroke-miterlimit="10"/>
<path d="M65.2193 30.1197H62.3739V13.7766H57.816V30.1197H54.9707V11.3408H65.2193V30.1197Z" fill="#1E1E1E"/>
<path d="M70.0137 14.9286C70.0137 12.0476 72.5692 11 74.7822 11C76.9952 11 79.5245 12.0214 79.5245 14.9286V26.505C79.5245 29.3598 76.969 30.4337 74.7822 30.4337C72.5956 30.4337 70.0137 29.4123 70.0137 26.505V14.9286ZM76.6792 14.9286C76.6792 13.8548 75.6517 13.4619 74.7822 13.4619C73.9128 13.4619 72.859 13.8286 72.859 14.9286V26.505C72.859 27.5789 73.9128 27.9717 74.7822 27.9717C75.6517 27.9717 76.6792 27.5789 76.6792 26.505V14.9286Z" fill="#1E1E1E"/>
<path d="M83.8457 30.1194V11.3406H89.1147C89.6369 11.2878 90.1643 11.3437 90.6636 11.5047C91.1628 11.6656 91.6227 11.9281 92.0144 12.2755C92.4059 12.6229 92.7205 13.0475 92.9379 13.5223C93.1554 13.9972 93.2711 14.5118 93.2775 15.0335V17.3383C93.2542 17.9207 93.0973 18.4901 92.8187 19.0031C92.5403 19.5161 92.1474 19.9589 91.6704 20.2978C92.3179 20.5614 92.868 21.0172 93.2452 21.6033C93.6224 22.1892 93.8085 22.8767 93.778 23.5716V25.8765C93.807 26.4458 93.7147 27.0147 93.5071 27.5461C93.2995 28.0773 92.9812 28.559 92.5733 28.9597C92.1653 29.3602 91.6769 29.6707 91.1399 29.8705C90.603 30.0704 90.0296 30.1551 89.4574 30.1194H83.8457ZM90.4322 15.3478C90.4543 15.1382 90.4296 14.9264 90.3598 14.7275C90.2898 14.5286 90.1766 14.3476 90.0279 14.1974C89.8794 14.0471 89.6992 13.9315 89.5003 13.8587C89.3014 13.7859 89.0889 13.7577 88.8777 13.7763H86.6911V19.2241H88.8251C89.0356 19.2402 89.2471 19.2104 89.445 19.1367C89.6427 19.0632 89.8218 18.9475 89.97 18.7978C90.118 18.6481 90.2314 18.468 90.3021 18.2702C90.3729 18.0724 90.3993 17.8615 90.3794 17.6525L90.4322 15.3478ZM90.8932 23.5716C90.9076 23.3134 90.8658 23.0552 90.7706 22.8145C90.6752 22.5738 90.5287 22.3565 90.3411 22.1774C90.1534 21.9984 89.9289 21.8617 89.6832 21.7769C89.4375 21.692 89.1762 21.661 88.9172 21.686H86.6911V27.7361H88.9567C89.2159 27.7601 89.4771 27.727 89.7222 27.6397C89.9673 27.5522 90.1898 27.4125 90.3746 27.23C90.5592 27.0477 90.7014 26.8273 90.791 26.5844C90.8806 26.3415 90.9155 26.0819 90.8932 25.8241V23.5716Z" fill="#1E1E1E"/>
<path d="M106.502 30.1197H98.1504V11.3408H106.502V13.7766H100.996V19.198H105.553V21.6338H100.996V27.6315H106.502V30.1197Z" fill="#1E1E1E"/>
<path d="M110.928 30.1197V11.3408H115.802C118.805 11.3408 120.728 12.9646 120.728 15.9766V18.3338C120.728 21.3195 118.805 22.9434 115.802 22.9434H113.773V30.1197H110.928ZM117.883 15.9766C117.909 15.6923 117.874 15.4057 117.781 15.1358C117.687 14.8658 117.537 14.6187 117.341 14.4107C117.144 14.2027 116.905 14.0387 116.64 13.9293C116.374 13.82 116.089 13.768 115.802 13.7766H113.773V20.4814H115.802C116.083 20.4874 116.363 20.4351 116.624 20.3282C116.884 20.2215 117.12 20.0622 117.315 19.8603C117.511 19.6586 117.662 19.4189 117.76 19.1561C117.858 18.8935 117.899 18.6135 117.883 18.3338V15.9766Z" fill="#1E1E1E"/>
<path d="M134.719 30.1197H131.874V21.6338H127.316V30.1197H124.471V11.3408H127.316V19.198H131.874V11.3408H134.719V30.1197Z" fill="#1E1E1E"/>
<path d="M147.313 30.1197V18.3338L142.545 30.1197H139.91V11.3408H142.756V23.1267L147.524 11.3408H150.159V30.1197H147.313Z" fill="#1E1E1E"/>
<path d="M161.619 23.5716H164.464V26.5312C164.464 29.386 161.908 30.4597 159.722 30.4597C157.535 30.4597 154.953 29.4383 154.953 26.5312V14.9286C154.953 12.0476 157.509 11 159.722 11C161.935 11 164.464 12.0214 164.464 14.9286V17.8882H161.619V14.9286C161.619 13.8548 160.591 13.4619 159.722 13.4619C158.852 13.4619 157.798 13.8286 157.798 14.9286V26.505C157.798 27.5789 158.852 27.9717 159.722 27.9717C160.591 27.9717 161.619 27.5789 161.619 26.505V23.5716Z" fill="#1E1E1E"/>
<path d="M178.875 25.4578C178.875 28.4959 176.951 30.0935 173.949 30.0935H169.074V11.3408H171.92V18.5172H173.949C176.951 18.5172 178.875 20.1148 178.875 23.1529V25.4578ZM173.949 27.6315C174.233 27.6419 174.517 27.5919 174.781 27.4848C175.047 27.3778 175.285 27.2161 175.481 27.0106C175.679 26.8052 175.829 26.5604 175.924 26.2927C176.018 26.0249 176.053 25.7403 176.03 25.4578V23.1529C176.038 22.8726 175.992 22.5932 175.892 22.3309C175.791 22.0687 175.641 21.8283 175.447 21.6241C175.255 21.4198 175.021 21.2554 174.764 21.1401C174.507 21.0249 174.229 20.9614 173.949 20.9529H171.92V27.6315H173.949Z" fill="#1E1E1E"/>
<path d="M69.8161 69.4055L65.6402 60.8935H64.9289V69.4055H62.0835V60.8935H61.3986L57.2096 69.4055H54.3906V68.8818L58.7113 59.8198L54.6013 51.0721V50.6006H57.4466L61.2668 58.4578H62.0835V50.6006H64.9289V58.4578H65.772L69.5658 50.6006H72.4506V51.0721L68.3934 59.8198L72.6877 68.8818V69.4055H69.8161Z" fill="#1E1E1E"/>
<path d="M83.4755 69.4055V57.6197L78.7068 69.4055H76.0723V50.6006H78.9176V62.3865L83.6861 50.6006H86.3208V69.4055H83.4755Z" fill="#1E1E1E"/>
<path d="M91.0117 69.4058V50.6008H96.2809C96.8029 50.5481 97.3305 50.6039 97.8296 50.7649C98.3288 50.9258 98.7889 51.1884 99.1804 51.5358C99.5719 51.883 99.8865 52.3077 100.104 52.7826C100.321 53.2573 100.437 53.7721 100.444 54.2938V56.5984C100.416 57.1843 100.253 57.7559 99.9672 58.2691C99.6816 58.7823 99.2812 59.2233 98.7969 59.5581C99.4563 59.8168 100.018 60.274 100.403 60.8658C100.788 61.4575 100.977 62.1542 100.944 62.858V65.1629C100.973 65.7322 100.881 66.3011 100.673 66.8325C100.465 67.3637 100.147 67.8456 99.7393 68.2461C99.3315 68.6466 98.8429 68.9571 98.3059 69.1569C97.769 69.3567 97.1956 69.4417 96.6234 69.4058H91.0117ZM97.5982 54.6342C97.6203 54.4247 97.5956 54.2129 97.5258 54.0139C97.4558 53.8151 97.3426 53.634 97.1941 53.4837C97.0454 53.3336 96.8652 53.2178 96.6663 53.1452C96.4674 53.0723 96.2549 53.0442 96.0437 53.0628H93.8571V58.5104H95.9911C96.2012 58.5178 96.4103 58.4796 96.6043 58.3986C96.7981 58.3176 96.9718 58.1955 97.1135 58.0412C97.255 57.8866 97.3613 57.7033 97.4245 57.504C97.4877 57.3045 97.5064 57.0939 97.4796 56.8866L97.5982 54.6342ZM98.1515 62.832C98.1743 62.5683 98.1382 62.3028 98.0457 62.0546C97.9532 61.8064 97.8068 61.5818 97.6166 61.3966C97.4265 61.2112 97.1975 61.0701 96.9461 60.9833C96.6947 60.8963 96.427 60.8658 96.1622 60.8938H93.8571V66.9438H96.1622C96.4199 66.9729 96.6806 66.9457 96.9265 66.864C97.1723 66.7824 97.3972 66.6483 97.5854 66.4711C97.7738 66.2939 97.9207 66.0781 98.0163 65.8384C98.1116 65.599 98.1534 65.3416 98.1382 65.0844L98.1515 62.832Z" fill="#1E1E1E"/>
<path d="M112.167 69.4055V57.6197L107.398 69.4055H104.764V50.6006H107.609V62.3865L112.378 50.6006H115.012V69.4055H112.167Z" fill="#1E1E1E"/>
<path d="M130.11 69.4055V56.5459L126.316 64.0365L122.509 56.5459V69.4055H119.703V50.6006H122.338L126.289 58.6149L130.32 50.6006H132.876V69.4055H130.11Z" fill="#1E1E1E"/>
</g>
<defs>
<clipPath id="clip0_614_330">
<rect width="200.952" height="80" fill="white"/>
</clipPath>
</defs>
</svg>
