<svg width="32" height="32" viewBox="0 0 32 32" fill="none" xmlns="http://www.w3.org/2000/svg">
<path d="M18.5654 15.7329L14.9718 14.0561C14.6582 13.9105 14.4006 14.0737 14.4006 14.4209V17.5793C14.4006 17.9265 14.6582 18.0897 14.9718 17.9441L18.5638 16.2673C18.879 16.1201 18.879 15.8801 18.5654 15.7329ZM16.0006 0.640137C7.51743 0.640137 0.640625 7.51694 0.640625 16.0001C0.640625 24.4833 7.51743 31.3601 16.0006 31.3601C24.4838 31.3601 31.3606 24.4833 31.3606 16.0001C31.3606 7.51694 24.4838 0.640137 16.0006 0.640137ZM16.0006 22.2401C8.13823 22.2401 8.00063 21.5313 8.00063 16.0001C8.00063 10.4689 8.13823 9.76014 16.0006 9.76014C23.863 9.76014 24.0006 10.4689 24.0006 16.0001C24.0006 21.5313 23.863 22.2401 16.0006 22.2401Z" fill="white"/>
</svg>
